{"title":"Ragini MMS(2011) Hindi 1CD PreDVDRip XviD Subs-=MTR=-","uid":6433669,"size":737461795,"categoryP":"video","categoryS":"movies","magnet":"?xt=urn:btih:653ec8cd0f50da22354013037540daa7daef804e&amp;dn=Ragini+MMS%282011%29+Hindi+1CD+PreDVDRip+XviD+Subs-%3DMTR%3D-&amp;tr=udp%3A%2F%2Ftracker.openbittorrent.com%3A80&amp;tr=udp%3A%2F%2Fopen.demonii.com%3A1337&amp;tr=udp%3A%2F%2Ftracker.coppersurfer.tk%3A6969&amp;tr=udp%3A%2F%2Fexodus.desync.com%3A6969","seeders":1,"leechers":0,"uploader":"HDvideos","files":4,"time":1306752659,"description":"Ragini MMS(2011) Hindi 1CD PreDVDRip XviD Subs-=MTR=-\n\nCheck out MY latest Uploads:\n &lt;a href=&quot;\nhttp://thepiratebay.se/user/HDvideos/0/7&quot; rel=&quot;nofollow&quot; target=&quot;_NEW&quot;&gt;\nhttp://thepiratebay.se/user/HDvideos/0/7&lt;/a&gt;\n\nStay updated with us....\n\nSeed after downloading....\n\nEnjoY with HDvideos..\n\nTorrent From Mastitorrents\n\nTeam Mastitorrents\n\nSay thanks if u like my posts\n\nGive ur valuable feedbacks\n\nQuality Uploads from HDvideos\n\nFormat                           : AVI\nFormat/Info                      : Audio Video Interleave\nFile size                        : 703 MiB\nDuration                         : 1h 32mn\nOverall bit rate                 : 1 068 Kbps\nWriting application              : Lavf51.12.1\n\nVideo\nID                               : 0\nFormat                           : xvid\nCodec ID                         : xvid\nDuration                         : 1h 32mn\nBit rate                         : 974 Kbps\nWidth                            : 720 pixels\nHeight                           : 304 pixels\nDisplay aspect ratio             : 2.35:1\nFrame rate                       : 29.970 fps\nBits/(Pixel*Frame)               : 0.149\nStream size                      : 642 MiB (91%)\n\nAudio\nID                               : 1\nFormat                           : MPEG Audio\nFormat version                   : Version 1\nFormat profile                   : Layer 3\nMode                             : Joint stereo\nMode extension                   : MS Stereo\nCodec ID                         : 55\nCodec ID/Hint                    : MP3\nDuration                         : 1h 32mn\nBit rate mode                    : Constant\nBit rate                         : 80.0 Kbps\nChannel(s)                       : 2 channels\nSampling rate                    : 44.1 KHz\nCompression mode                 : Lossy\nStream size                      : 52.7 MiB (7%)\nAlignment                        : Aligned on interleaves\nInterleave, duration             : 26 ms (0.78 video frame)\nWriting library                  : LAME3.97\n\n[quote]Format                           : AVI\nFormat/Info                      : Audio Video Interleave\nFile size                        : 703 MiB\nDuration                         : 1h 32mn\nOverall bit rate                 : 1 068 Kbps\nWriting application              : Lavf51.12.1\n\nVideo\nID                               : 0\nFormat                           : xvid\nCodec ID                         : xvid\nDuration                         : 1h 32mn\nBit rate                         : 974 Kbps\nWidth                            : 720 pixels\nHeight                           : 304 pixels\nDisplay aspect ratio             : 2.35:1\nFrame rate                       : 29.970 fps\nBits/(Pixel*Frame)               : 0.149\nStream size                      : 642 MiB (91%)\n\n","torrent":{"xt":"urn:btih:653ec8cd0f50da22354013037540daa7daef804e","amp;dn":"Ragini+MMS%282011%29+Hindi+1CD+PreDVDRip+XviD+Subs-%3DMTR%3D-","amp;tr":["udp%3A%2F%2Ftracker.openbittorrent.com%3A80","udp%3A%2F%2Fopen.demonii.com%3A1337","udp%3A%2F%2Ftracker.coppersurfer.tk%3A6969","udp%3A%2F%2Fexodus.desync.com%3A6969"],"infoHash":"653ec8cd0f50da22354013037540daa7daef804e","infoHashBuffer":{"type":"Buffer","data":[101,62,200,205,15,80,218,34,53,64,19,3,117,64,218,167,218,239,128,78]},"announce":[],"urlList":[]}}